<mxfile host="app.diagrams.net" modified="2021-01-04T13:46:45.405Z" agent="5.0 (Windows NT 10.0; Win64; x64) AppleWebKit/537.36 (KHTML, like Gecko) Chrome/87.0.4280.88 Safari/537.36" etag="KIWoO0BercL__niVIyIA" version="14.1.8" type="github">
  <diagram name="Page-1" id="822b0af5-4adb-64df-f703-e8dfc1f81529">
    <mxGraphModel dx="1673" dy="829" grid="1" gridSize="10" guides="1" tooltips="1" connect="1" arrows="1" fold="1" page="1" pageScale="1" pageWidth="1100" pageHeight="850" background="#ffffff" math="0" shadow="0">
      <root>
        <mxCell id="0" />
        <mxCell id="1" parent="0" />
        <mxCell id="bN61JtL-TFYNVH4DLfYO-4" value="" style="rounded=0;whiteSpace=wrap;html=1;fillColor=none;" vertex="1" parent="1">
          <mxGeometry x="20" y="80" width="1060" height="720" as="geometry" />
        </mxCell>
        <mxCell id="bN61JtL-TFYNVH4DLfYO-5" value="" style="rounded=0;whiteSpace=wrap;html=1;fillColor=none;dashed=1;strokeWidth=2;" vertex="1" parent="1">
          <mxGeometry x="40" y="130" width="1020" height="650" as="geometry" />
        </mxCell>
        <mxCell id="bN61JtL-TFYNVH4DLfYO-3" value="" style="group" vertex="1" connectable="0" parent="1">
          <mxGeometry x="240" y="265" width="160" height="140" as="geometry" />
        </mxCell>
        <mxCell id="bN61JtL-TFYNVH4DLfYO-2" value="&lt;b&gt;&lt;br&gt;Hadoop Master&lt;/b&gt;&lt;br&gt;&lt;div style=&quot;text-align: left&quot;&gt;&lt;ul&gt;&lt;li&gt;&lt;span&gt;HDFS&lt;/span&gt;&lt;/li&gt;&lt;li&gt;&lt;span&gt;YARN&lt;/span&gt;&lt;/li&gt;&lt;li&gt;&lt;span&gt;Hive&lt;/span&gt;&lt;/li&gt;&lt;li&gt;&lt;span&gt;PostgreSQL&lt;/span&gt;&lt;/li&gt;&lt;/ul&gt;&lt;/div&gt;" style="rounded=0;whiteSpace=wrap;html=1;" vertex="1" parent="bN61JtL-TFYNVH4DLfYO-3">
          <mxGeometry x="20" y="30" width="140" height="110" as="geometry" />
        </mxCell>
        <mxCell id="bN61JtL-TFYNVH4DLfYO-1" value="" style="shape=image;html=1;verticalAlign=top;verticalLabelPosition=bottom;labelBackgroundColor=#ffffff;imageAspect=0;aspect=fixed;image=https://cdn3.iconfinder.com/data/icons/social-media-2169/24/social_media_social_media_logo_docker-128.png" vertex="1" parent="bN61JtL-TFYNVH4DLfYO-3">
          <mxGeometry width="60" height="60" as="geometry" />
        </mxCell>
        <mxCell id="bN61JtL-TFYNVH4DLfYO-6" value="&#39;bridge&#39; network" style="text;html=1;strokeColor=none;fillColor=none;align=center;verticalAlign=middle;whiteSpace=wrap;rounded=0;fontSize=16;" vertex="1" parent="1">
          <mxGeometry x="10" y="110" width="160" height="20" as="geometry" />
        </mxCell>
        <mxCell id="bN61JtL-TFYNVH4DLfYO-7" value="" style="aspect=fixed;html=1;points=[];align=center;image;fontSize=12;image=img/lib/mscae/Docker.svg;fillColor=none;" vertex="1" parent="1">
          <mxGeometry x="10" y="10" width="73.17" height="60" as="geometry" />
        </mxCell>
        <mxCell id="bN61JtL-TFYNVH4DLfYO-8" value="" style="group" vertex="1" connectable="0" parent="1">
          <mxGeometry x="140" y="475" width="160" height="140" as="geometry" />
        </mxCell>
        <mxCell id="bN61JtL-TFYNVH4DLfYO-9" value="&lt;b&gt;&lt;br&gt;Hadoop Worker 1&lt;/b&gt;&lt;br&gt;&lt;div style=&quot;text-align: left&quot;&gt;&lt;ul&gt;&lt;li&gt;&lt;span&gt;HDFS&lt;/span&gt;&lt;/li&gt;&lt;li&gt;&lt;span&gt;YARN&lt;/span&gt;&lt;/li&gt;&lt;/ul&gt;&lt;/div&gt;" style="rounded=0;whiteSpace=wrap;html=1;" vertex="1" parent="bN61JtL-TFYNVH4DLfYO-8">
          <mxGeometry x="20" y="30" width="140" height="110" as="geometry" />
        </mxCell>
        <mxCell id="bN61JtL-TFYNVH4DLfYO-10" value="" style="shape=image;html=1;verticalAlign=top;verticalLabelPosition=bottom;labelBackgroundColor=#ffffff;imageAspect=0;aspect=fixed;image=https://cdn3.iconfinder.com/data/icons/social-media-2169/24/social_media_social_media_logo_docker-128.png" vertex="1" parent="bN61JtL-TFYNVH4DLfYO-8">
          <mxGeometry width="60" height="60" as="geometry" />
        </mxCell>
        <mxCell id="bN61JtL-TFYNVH4DLfYO-14" value="" style="group" vertex="1" connectable="0" parent="1">
          <mxGeometry x="340" y="475" width="160" height="140" as="geometry" />
        </mxCell>
        <mxCell id="bN61JtL-TFYNVH4DLfYO-15" value="&lt;b&gt;&lt;br&gt;Hadoop Worker 2&lt;/b&gt;&lt;br&gt;&lt;div style=&quot;text-align: left&quot;&gt;&lt;ul&gt;&lt;li&gt;&lt;span&gt;HDFS&lt;/span&gt;&lt;/li&gt;&lt;li&gt;&lt;span&gt;YARN&lt;/span&gt;&lt;/li&gt;&lt;/ul&gt;&lt;/div&gt;" style="rounded=0;whiteSpace=wrap;html=1;" vertex="1" parent="bN61JtL-TFYNVH4DLfYO-14">
          <mxGeometry x="20" y="30" width="140" height="110" as="geometry" />
        </mxCell>
        <mxCell id="bN61JtL-TFYNVH4DLfYO-16" value="" style="shape=image;html=1;verticalAlign=top;verticalLabelPosition=bottom;labelBackgroundColor=#ffffff;imageAspect=0;aspect=fixed;image=https://cdn3.iconfinder.com/data/icons/social-media-2169/24/social_media_social_media_logo_docker-128.png" vertex="1" parent="bN61JtL-TFYNVH4DLfYO-14">
          <mxGeometry width="60" height="60" as="geometry" />
        </mxCell>
        <mxCell id="bN61JtL-TFYNVH4DLfYO-17" value="" style="group" vertex="1" connectable="0" parent="1">
          <mxGeometry x="700" y="265" width="160" height="140" as="geometry" />
        </mxCell>
        <mxCell id="bN61JtL-TFYNVH4DLfYO-21" value="" style="group" vertex="1" connectable="0" parent="bN61JtL-TFYNVH4DLfYO-17">
          <mxGeometry x="-4.349999999999994" y="10" width="164.35" height="130" as="geometry" />
        </mxCell>
        <mxCell id="bN61JtL-TFYNVH4DLfYO-18" value="&lt;b&gt;&lt;br&gt;Spark Master&lt;/b&gt;&lt;br&gt;&lt;div style=&quot;text-align: left&quot;&gt;&lt;ul&gt;&lt;li&gt;&lt;span&gt;Scala&lt;/span&gt;&lt;/li&gt;&lt;li&gt;&lt;span&gt;Spark&lt;/span&gt;&lt;/li&gt;&lt;/ul&gt;&lt;/div&gt;" style="rounded=0;whiteSpace=wrap;html=1;" vertex="1" parent="bN61JtL-TFYNVH4DLfYO-21">
          <mxGeometry x="24.349999999999994" y="20" width="140" height="110" as="geometry" />
        </mxCell>
        <mxCell id="bN61JtL-TFYNVH4DLfYO-20" value="" style="shape=image;verticalLabelPosition=bottom;verticalAlign=top;imageAspect=0;aspect=fixed;image=data:image/png,iVBORw0KGgoAAAANSUhEUgAAAFQAAABVCAMAAADg6TNWAAAAA3NCSVQICAjb4U/gAAAAP1BMVEXiWhzgPADrmonyxr3iWBTgQgDiVgX////iUQDhSQD88O3++ff439r21M765+LkZjngMADuraDohm7ldVTwurDPBAhzAAAEg0lEQVRYha2Z6darIAxFQYaCA+Lw/s96USGMAv1u+atrNyTh5GDRp2ONs+p5DRZqv6IOxjAiP4USzRFCFA8/hM6YonuxfmoTijiyC3dnoAU9pWMiyqYfQVcKUCR6E9CAzhgFC88/gQa7N4uvP4HuIoQief4CGqb0rtX4/9Ax2n13repQqJNv1p5a1aHERsoPl9uuWtWh28OifBIuua+1UmTYj30bm9Dj2TbfP4S5BJRqNZJBMik4F1KTFlTb8mzAz2s1LcNhgG4nVKs6VNk6sSU8W3jxwHk7NBNQRhtBFbrYPbNL+AdXK0ofoDp3lgDtTqpQe0ipuOQpqpVJ4oolpynxeVqF2uDo00a+VlJon8R0tXJqi+NKc2RbLSyx16s/MdjQvWIdfAt0rEPD4ofpSBcPdnDPnBrUHVLs2n3KE0mFZIcXSLZ9GlB3SBHMJl8rBxQDGf0OroQ2oDsP37wX1IpyieVAbucyOIEUVm0qUGXbkAfnUrEnRCb204ng6cLnaKxDR7Izm0AZzvtBConXbfHTenE9QbFzXEWoOg/T3VDQUJenY1gimVLut5EGTcih87YyGba5ftnMsyPpmMwLbQKdzZFO+obyGhRGggwyH0CNMGKWd2J11u1JM8XQieympCnwKrSuzPqgmUKf9UDnSxlz2TG9KLbK+CRQeBEV74KOuy7EyKU+zqotX3TWTABdcI4UUh5nw40oKHwwYCxU4WTf5kjrnTT9zQSTBKdZR4n0mhMoh6XH3a6lZrLQMRIeufYRw8Lv2TM0h1CxdQHN2kBF1jwIpHAcKekKdHKFR6zQcihRcyrF0GPsvC4XNoc+W+JBqcBHO1woRenOgsKbklum75vh1kJF148W5rlgjex6zdNZS1/HVNHUhT/hsmq4kLZcxh5B2ZgsuBiT3Vq43gamCmGlb9w4K5kjqpcM5tb52v4g0hNZC8KSRxEsCoKSpCkcJ8uejpL6gAJrIY53qCnZIJPkygrUX92SUNNpOp5RzXgSw0uoyWuFuU+oz23aLklLriCpUT1LZmLyLk7Gx2XTRzSzFjis0Z2tbHsgWZHl+ZwYcXH5MggYFJ6FLzagkbDZ4Xk5SL495gfMdWQ5itAJOpAFbboEyvv4PhW4ifB6WYSOrl3Dea5YaoeMKxg2uF3xqQF1BzDI/1g6xlT4RpGvBs0FlfXfRFv3HYo6odCm01q+mITLX6+LUJiwsCVwjOL1phd0ShEKPe3adPcqZ9ThJRG+U8pQx7A/7o3DcWnkUb6Z4npO3a3Mjp/MOIy3mU24gUzUofKCEP/Jx7eisd0yuuxz6Vu6CHWD4m5TcKFcJBplrhza3vnN0Q0OdBV6DR8vRLL0RebcBWbX5S98WIcO/nDSkmm6E6EWMsczt5pTcXpnqzs/czahksBBSh3436EIDnz/9+hX6JLaoMzV/wXKYibrNtgVqIqhX3zh74Z+zWwo/1/2/gb9IC8Wtfvud1D//UV/1UtVqJuRXH7T8w2oHfFy7foC3wm9nJcx59+XqApVzBiFv4X5DjWC1vs/UWH9A4EcnmkqHjDlAAAAAElFTkSuQmCC" vertex="1" parent="bN61JtL-TFYNVH4DLfYO-21">
          <mxGeometry x="-5.65" width="54.35" height="55" as="geometry" />
        </mxCell>
        <mxCell id="bN61JtL-TFYNVH4DLfYO-22" value="" style="group" vertex="1" connectable="0" parent="1">
          <mxGeometry x="600" y="475" width="160" height="140" as="geometry" />
        </mxCell>
        <mxCell id="bN61JtL-TFYNVH4DLfYO-23" value="" style="group" vertex="1" connectable="0" parent="bN61JtL-TFYNVH4DLfYO-22">
          <mxGeometry x="-4.349999999999994" y="10" width="164.35" height="130" as="geometry" />
        </mxCell>
        <mxCell id="bN61JtL-TFYNVH4DLfYO-24" value="&lt;b&gt;&lt;br&gt;Spark Worker 1&lt;/b&gt;&lt;br&gt;&lt;div style=&quot;text-align: left&quot;&gt;&lt;ul&gt;&lt;li&gt;&lt;span&gt;Scala&lt;/span&gt;&lt;/li&gt;&lt;li&gt;&lt;span&gt;Spark&lt;/span&gt;&lt;/li&gt;&lt;/ul&gt;&lt;/div&gt;" style="rounded=0;whiteSpace=wrap;html=1;" vertex="1" parent="bN61JtL-TFYNVH4DLfYO-23">
          <mxGeometry x="24.349999999999994" y="20" width="140" height="110" as="geometry" />
        </mxCell>
        <mxCell id="bN61JtL-TFYNVH4DLfYO-25" value="" style="shape=image;verticalLabelPosition=bottom;verticalAlign=top;imageAspect=0;aspect=fixed;image=data:image/png,iVBORw0KGgoAAAANSUhEUgAAAFQAAABVCAMAAADg6TNWAAAAA3NCSVQICAjb4U/gAAAAP1BMVEXiWhzgPADrmonyxr3iWBTgQgDiVgX////iUQDhSQD88O3++ff439r21M765+LkZjngMADuraDohm7ldVTwurDPBAhzAAAEg0lEQVRYha2Z6darIAxFQYaCA+Lw/s96USGMAv1u+atrNyTh5GDRp2ONs+p5DRZqv6IOxjAiP4USzRFCFA8/hM6YonuxfmoTijiyC3dnoAU9pWMiyqYfQVcKUCR6E9CAzhgFC88/gQa7N4uvP4HuIoQief4CGqb0rtX4/9Ax2n13repQqJNv1p5a1aHERsoPl9uuWtWh28OifBIuua+1UmTYj30bm9Dj2TbfP4S5BJRqNZJBMik4F1KTFlTb8mzAz2s1LcNhgG4nVKs6VNk6sSU8W3jxwHk7NBNQRhtBFbrYPbNL+AdXK0ofoDp3lgDtTqpQe0ipuOQpqpVJ4oolpynxeVqF2uDo00a+VlJon8R0tXJqi+NKc2RbLSyx16s/MdjQvWIdfAt0rEPD4ofpSBcPdnDPnBrUHVLs2n3KE0mFZIcXSLZ9GlB3SBHMJl8rBxQDGf0OroQ2oDsP37wX1IpyieVAbucyOIEUVm0qUGXbkAfnUrEnRCb204ng6cLnaKxDR7Izm0AZzvtBConXbfHTenE9QbFzXEWoOg/T3VDQUJenY1gimVLut5EGTcih87YyGba5ftnMsyPpmMwLbQKdzZFO+obyGhRGggwyH0CNMGKWd2J11u1JM8XQieympCnwKrSuzPqgmUKf9UDnSxlz2TG9KLbK+CRQeBEV74KOuy7EyKU+zqotX3TWTABdcI4UUh5nw40oKHwwYCxU4WTf5kjrnTT9zQSTBKdZR4n0mhMoh6XH3a6lZrLQMRIeufYRw8Lv2TM0h1CxdQHN2kBF1jwIpHAcKekKdHKFR6zQcihRcyrF0GPsvC4XNoc+W+JBqcBHO1woRenOgsKbklum75vh1kJF148W5rlgjex6zdNZS1/HVNHUhT/hsmq4kLZcxh5B2ZgsuBiT3Vq43gamCmGlb9w4K5kjqpcM5tb52v4g0hNZC8KSRxEsCoKSpCkcJ8uejpL6gAJrIY53qCnZIJPkygrUX92SUNNpOp5RzXgSw0uoyWuFuU+oz23aLklLriCpUT1LZmLyLk7Gx2XTRzSzFjis0Z2tbHsgWZHl+ZwYcXH5MggYFJ6FLzagkbDZ4Xk5SL495gfMdWQ5itAJOpAFbboEyvv4PhW4ifB6WYSOrl3Dea5YaoeMKxg2uF3xqQF1BzDI/1g6xlT4RpGvBs0FlfXfRFv3HYo6odCm01q+mITLX6+LUJiwsCVwjOL1phd0ShEKPe3adPcqZ9ThJRG+U8pQx7A/7o3DcWnkUb6Z4npO3a3Mjp/MOIy3mU24gUzUofKCEP/Jx7eisd0yuuxz6Vu6CHWD4m5TcKFcJBplrhza3vnN0Q0OdBV6DR8vRLL0RebcBWbX5S98WIcO/nDSkmm6E6EWMsczt5pTcXpnqzs/czahksBBSh3436EIDnz/9+hX6JLaoMzV/wXKYibrNtgVqIqhX3zh74Z+zWwo/1/2/gb9IC8Wtfvud1D//UV/1UtVqJuRXH7T8w2oHfFy7foC3wm9nJcx59+XqApVzBiFv4X5DjWC1vs/UWH9A4EcnmkqHjDlAAAAAElFTkSuQmCC" vertex="1" parent="bN61JtL-TFYNVH4DLfYO-23">
          <mxGeometry x="-5.65" width="54.35" height="55" as="geometry" />
        </mxCell>
        <mxCell id="bN61JtL-TFYNVH4DLfYO-26" value="" style="group" vertex="1" connectable="0" parent="1">
          <mxGeometry x="800" y="475" width="160" height="140" as="geometry" />
        </mxCell>
        <mxCell id="bN61JtL-TFYNVH4DLfYO-27" value="" style="group" vertex="1" connectable="0" parent="bN61JtL-TFYNVH4DLfYO-26">
          <mxGeometry x="-4.349999999999994" y="10" width="164.35" height="130" as="geometry" />
        </mxCell>
        <mxCell id="bN61JtL-TFYNVH4DLfYO-28" value="&lt;b&gt;&lt;br&gt;Spark Worker 2&lt;/b&gt;&lt;br&gt;&lt;div style=&quot;text-align: left&quot;&gt;&lt;ul&gt;&lt;li&gt;&lt;span&gt;Scala&lt;/span&gt;&lt;/li&gt;&lt;li&gt;&lt;span&gt;Spark&lt;/span&gt;&lt;/li&gt;&lt;/ul&gt;&lt;/div&gt;" style="rounded=0;whiteSpace=wrap;html=1;" vertex="1" parent="bN61JtL-TFYNVH4DLfYO-27">
          <mxGeometry x="24.349999999999994" y="20" width="140" height="110" as="geometry" />
        </mxCell>
        <mxCell id="bN61JtL-TFYNVH4DLfYO-29" value="" style="shape=image;verticalLabelPosition=bottom;verticalAlign=top;imageAspect=0;aspect=fixed;image=data:image/png,iVBORw0KGgoAAAANSUhEUgAAAFQAAABVCAMAAADg6TNWAAAAA3NCSVQICAjb4U/gAAAAP1BMVEXiWhzgPADrmonyxr3iWBTgQgDiVgX////iUQDhSQD88O3++ff439r21M765+LkZjngMADuraDohm7ldVTwurDPBAhzAAAEg0lEQVRYha2Z6darIAxFQYaCA+Lw/s96USGMAv1u+atrNyTh5GDRp2ONs+p5DRZqv6IOxjAiP4USzRFCFA8/hM6YonuxfmoTijiyC3dnoAU9pWMiyqYfQVcKUCR6E9CAzhgFC88/gQa7N4uvP4HuIoQief4CGqb0rtX4/9Ax2n13repQqJNv1p5a1aHERsoPl9uuWtWh28OifBIuua+1UmTYj30bm9Dj2TbfP4S5BJRqNZJBMik4F1KTFlTb8mzAz2s1LcNhgG4nVKs6VNk6sSU8W3jxwHk7NBNQRhtBFbrYPbNL+AdXK0ofoDp3lgDtTqpQe0ipuOQpqpVJ4oolpynxeVqF2uDo00a+VlJon8R0tXJqi+NKc2RbLSyx16s/MdjQvWIdfAt0rEPD4ofpSBcPdnDPnBrUHVLs2n3KE0mFZIcXSLZ9GlB3SBHMJl8rBxQDGf0OroQ2oDsP37wX1IpyieVAbucyOIEUVm0qUGXbkAfnUrEnRCb204ng6cLnaKxDR7Izm0AZzvtBConXbfHTenE9QbFzXEWoOg/T3VDQUJenY1gimVLut5EGTcih87YyGba5ftnMsyPpmMwLbQKdzZFO+obyGhRGggwyH0CNMGKWd2J11u1JM8XQieympCnwKrSuzPqgmUKf9UDnSxlz2TG9KLbK+CRQeBEV74KOuy7EyKU+zqotX3TWTABdcI4UUh5nw40oKHwwYCxU4WTf5kjrnTT9zQSTBKdZR4n0mhMoh6XH3a6lZrLQMRIeufYRw8Lv2TM0h1CxdQHN2kBF1jwIpHAcKekKdHKFR6zQcihRcyrF0GPsvC4XNoc+W+JBqcBHO1woRenOgsKbklum75vh1kJF148W5rlgjex6zdNZS1/HVNHUhT/hsmq4kLZcxh5B2ZgsuBiT3Vq43gamCmGlb9w4K5kjqpcM5tb52v4g0hNZC8KSRxEsCoKSpCkcJ8uejpL6gAJrIY53qCnZIJPkygrUX92SUNNpOp5RzXgSw0uoyWuFuU+oz23aLklLriCpUT1LZmLyLk7Gx2XTRzSzFjis0Z2tbHsgWZHl+ZwYcXH5MggYFJ6FLzagkbDZ4Xk5SL495gfMdWQ5itAJOpAFbboEyvv4PhW4ifB6WYSOrl3Dea5YaoeMKxg2uF3xqQF1BzDI/1g6xlT4RpGvBs0FlfXfRFv3HYo6odCm01q+mITLX6+LUJiwsCVwjOL1phd0ShEKPe3adPcqZ9ThJRG+U8pQx7A/7o3DcWnkUb6Z4npO3a3Mjp/MOIy3mU24gUzUofKCEP/Jx7eisd0yuuxz6Vu6CHWD4m5TcKFcJBplrhza3vnN0Q0OdBV6DR8vRLL0RebcBWbX5S98WIcO/nDSkmm6E6EWMsczt5pTcXpnqzs/czahksBBSh3436EIDnz/9+hX6JLaoMzV/wXKYibrNtgVqIqhX3zh74Z+zWwo/1/2/gb9IC8Wtfvud1D//UV/1UtVqJuRXH7T8w2oHfFy7foC3wm9nJcx59+XqApVzBiFv4X5DjWC1vs/UWH9A4EcnmkqHjDlAAAAAElFTkSuQmCC" vertex="1" parent="bN61JtL-TFYNVH4DLfYO-27">
          <mxGeometry x="-5.65" width="54.35" height="55" as="geometry" />
        </mxCell>
        <mxCell id="bN61JtL-TFYNVH4DLfYO-30" style="rounded=0;orthogonalLoop=1;jettySize=auto;html=1;exitX=0.5;exitY=1;exitDx=0;exitDy=0;entryX=0.5;entryY=0;entryDx=0;entryDy=0;fontSize=16;startArrow=classic;startFill=1;" edge="1" parent="1" source="bN61JtL-TFYNVH4DLfYO-2" target="bN61JtL-TFYNVH4DLfYO-9">
          <mxGeometry relative="1" as="geometry" />
        </mxCell>
        <mxCell id="bN61JtL-TFYNVH4DLfYO-31" style="rounded=0;orthogonalLoop=1;jettySize=auto;html=1;exitX=0.5;exitY=1;exitDx=0;exitDy=0;fontSize=16;startArrow=classic;startFill=1;entryX=0.5;entryY=0;entryDx=0;entryDy=0;" edge="1" parent="1" source="bN61JtL-TFYNVH4DLfYO-2" target="bN61JtL-TFYNVH4DLfYO-15">
          <mxGeometry relative="1" as="geometry" />
        </mxCell>
        <mxCell id="bN61JtL-TFYNVH4DLfYO-32" value="&lt;font face=&quot;Courier New&quot;&gt;hadoop-compose.yaml&lt;/font&gt;" style="text;html=1;strokeColor=none;fillColor=none;align=center;verticalAlign=middle;whiteSpace=wrap;rounded=0;dashed=1;fontSize=16;" vertex="1" parent="1">
          <mxGeometry x="220" y="235" width="200" height="20" as="geometry" />
        </mxCell>
        <mxCell id="bN61JtL-TFYNVH4DLfYO-33" style="edgeStyle=none;rounded=0;orthogonalLoop=1;jettySize=auto;html=1;exitX=0.5;exitY=1;exitDx=0;exitDy=0;entryX=0.5;entryY=0;entryDx=0;entryDy=0;startArrow=classic;startFill=1;fontSize=16;" edge="1" parent="1" source="bN61JtL-TFYNVH4DLfYO-18" target="bN61JtL-TFYNVH4DLfYO-24">
          <mxGeometry relative="1" as="geometry" />
        </mxCell>
        <mxCell id="bN61JtL-TFYNVH4DLfYO-34" style="edgeStyle=none;rounded=0;orthogonalLoop=1;jettySize=auto;html=1;exitX=0.5;exitY=1;exitDx=0;exitDy=0;entryX=0.5;entryY=0;entryDx=0;entryDy=0;startArrow=classic;startFill=1;fontSize=16;" edge="1" parent="1" source="bN61JtL-TFYNVH4DLfYO-18" target="bN61JtL-TFYNVH4DLfYO-28">
          <mxGeometry relative="1" as="geometry" />
        </mxCell>
        <mxCell id="bN61JtL-TFYNVH4DLfYO-35" value="&lt;font face=&quot;Courier New&quot;&gt;spark-compose.yaml&lt;/font&gt;" style="text;html=1;strokeColor=none;fillColor=none;align=center;verticalAlign=middle;whiteSpace=wrap;rounded=0;dashed=1;fontSize=16;" vertex="1" parent="1">
          <mxGeometry x="680" y="245" width="200" height="20" as="geometry" />
        </mxCell>
      </root>
    </mxGraphModel>
  </diagram>
</mxfile>
